<?xml version="1.0" encoding="utf-8"?>
<!-- Generator: Adobe Illustrator 16.2.1, SVG Export Plug-In . SVG Version: 6.00 Build 0)  -->
<!DOCTYPE svg PUBLIC "-//W3C//DTD SVG 1.1//EN" "http://www.w3.org/Graphics/SVG/1.1/DTD/svg11.dtd">
<svg version="1.1" id="Layer_1" xmlns="http://www.w3.org/2000/svg" xmlns:xlink="http://www.w3.org/1999/xlink" x="0px" y="0px"
	 width="500px" height="150px" viewBox="0 0 500 150" enable-background="new 0 0 500 150" xml:space="preserve">
<g>
	<g>
		<path fill="#4A4A4B" d="M80.48,100.786c-1.456,2.447-3.361,4.212-5.723,5.292c-2.358,1.075-5.024,1.613-7.996,1.613
			c-3.382,0-6.354-0.656-8.915-1.964c-2.565-1.312-4.678-3.09-6.337-5.333c-1.664-2.239-2.917-4.821-3.759-7.733
			c-0.847-2.913-1.27-5.943-1.27-9.093c0-3.026,0.423-5.956,1.27-8.783c0.842-2.823,2.095-5.316,3.759-7.471
			c1.659-2.159,3.742-3.89,6.248-5.202c2.506-1.312,5.418-1.968,8.741-1.968c2.679,0,5.228,0.571,7.645,1.706
			c2.421,1.139,4.33,2.815,5.727,5.029h0.174V41.427l12.411,4.538v60.59H80.658v-5.77H80.48z M79.959,78.453
			c-0.351-1.714-0.948-3.234-1.794-4.542c-0.843-1.312-1.935-2.375-3.276-3.191c-1.342-0.813-3.031-1.224-5.071-1.224
			s-3.755,0.411-5.156,1.224c-1.397,0.817-2.519,1.892-3.365,3.234c-0.842,1.342-1.456,2.87-1.833,4.588
			c-0.381,1.719-0.571,3.514-0.571,5.376c0,1.748,0.208,3.497,0.614,5.245s1.062,3.306,1.968,4.677
			c0.902,1.368,2.036,2.477,3.408,3.319c1.367,0.847,3.014,1.27,4.936,1.27c2.04,0,3.746-0.406,5.113-1.224
			c1.372-0.817,2.464-1.909,3.281-3.28c0.813-1.367,1.397-2.929,1.748-4.673c0.347-1.748,0.521-3.556,0.521-5.422
			C80.48,81.967,80.307,80.172,79.959,78.453z"/>
		<path fill="#4A4A4B" d="M113.87,61.369v45.187h-12.411V61.369H113.87z"/>
		<path fill="#4A4A4B" d="M120.685,112.147c1.283,0,2.404-0.245,3.365-0.741c0.961-0.495,1.443-1.587,1.443-3.28V61.369h12.411
			v47.371c0,2.328-0.25,4.343-0.741,6.032c-0.495,1.689-1.342,3.103-2.536,4.237c-1.198,1.139-2.815,1.981-4.851,2.536
			c-2.04,0.555-4.635,0.83-7.78,0.83c-1.456,0-2.768-0.114-3.932-0.347v-10.227C118.708,112.033,119.58,112.147,120.685,112.147z"/>
		<path fill="#4A4A4B" d="M145.858,112.147c1.283,0,2.404-0.245,3.365-0.741c0.961-0.495,1.439-1.587,1.439-3.28V61.369h12.415
			v47.371c0,2.328-0.25,4.343-0.745,6.032s-1.342,3.103-2.535,4.237c-1.194,1.139-2.811,1.981-4.851,2.536
			c-2.041,0.555-4.631,0.83-7.776,0.83c-1.46,0-2.769-0.114-3.933-0.347v-10.227C143.877,112.033,144.754,112.147,145.858,112.147z"
			/>
		<path fill="#4A4A4B" d="M187.727,61.369v45.187h-12.411V61.369H187.727z"/>
		<polygon fill="#4A4A4B" points="101.814,58.004 101.814,48.89 113.87,51.612 113.87,58.004 		"/>
		<polygon fill="#4A4A4B" points="125.849,58.004 125.849,52.518 137.905,53.428 137.905,58.004 		"/>
		<polygon fill="#4A4A4B" points="151.022,58.004 151.022,53.428 163.078,52.518 163.078,58.004 		"/>
		<polygon fill="#4A4A4B" points="175.671,58.004 175.671,50.702 187.727,47.074 187.727,58.004 		"/>
		<path fill="#2E80C3" d="M40.381,64.442L14.107,38.168C7.275,45.618,3.711,54.986,3.411,64.442H40.381z"/>
		<path fill="#1C71A5" d="M3.415,67.079c0.313,9.596,3.975,19.108,11.018,26.608l26.608-26.608H3.415z"/>
		<path fill="#0E5C84" d="M42.438,69.412L16.296,95.55c7.382,6.929,16.703,10.591,26.143,11.005V69.412z"/>
		<path fill="#479AD4" d="M42.438,24.961c-9.583,0.415-19.048,4.19-26.481,11.323l26.481,26.481V24.961z"/>
		<path fill="#63B8E7" d="M45.076,63.041l27.083-27.078c-7.628-7.158-17.326-10.824-27.083-11.027V63.041z"/>
		<g>
			<path fill="#2E80C3" d="M220.28,61.568c1.848,0,3.6,0.233,5.262,0.694c1.657,0.461,3.107,1.164,4.347,2.11
				c1.238,0.946,2.227,2.166,2.961,3.655c0.734,1.49,1.103,3.245,1.103,5.262c0,2.855-0.734,5.333-2.206,7.433
				c-1.471,2.102-3.655,3.446-6.553,4.034v0.125c1.469,0.212,2.688,0.599,3.655,1.167c0.965,0.567,1.752,1.291,2.362,2.173
				c0.607,0.883,1.05,1.901,1.323,3.056c0.273,1.156,0.451,2.404,0.536,3.749c0.042,0.755,0.084,1.68,0.127,2.772
				c0.04,1.092,0.125,2.195,0.252,3.308c0.125,1.113,0.324,2.163,0.599,3.149c0.271,0.988,0.64,1.754,1.103,2.3h-4.726
				c-0.252-0.419-0.453-0.933-0.599-1.542c-0.148-0.61-0.252-1.24-0.315-1.89c-0.063-0.652-0.116-1.293-0.157-1.922
				c-0.042-0.631-0.084-1.177-0.127-1.638c-0.084-1.596-0.22-3.183-0.408-4.758c-0.19-1.575-0.588-2.982-1.198-4.222
				c-0.609-1.238-1.492-2.235-2.646-2.993c-1.155-0.755-2.741-1.092-4.758-1.007h-16.254v19.973h-4.286V61.568H220.28z
				 M219.965,82.927c1.302,0,2.542-0.199,3.717-0.599c1.177-0.398,2.205-0.976,3.088-1.731c0.883-0.755,1.585-1.67,2.112-2.741
				c0.522-1.071,0.787-2.301,0.787-3.687c0-2.772-0.8-4.957-2.396-6.553c-1.596-1.596-4.032-2.394-7.309-2.394h-16.002v17.704
				H219.965z"/>
			<path fill="#2E80C3" d="M272.764,61.568v3.655h-26.776V81.48h25.075v3.653h-25.075v17.768h27.094v3.655h-31.38V61.568H272.764z"
				/>
			<path fill="#2E80C3" d="M282.152,97.546c0.754,1.554,1.795,2.794,3.12,3.717c1.32,0.925,2.887,1.587,4.689,1.985
				c1.808,0.4,3.742,0.599,5.8,0.599c1.177,0,2.455-0.167,3.844-0.503c1.384-0.337,2.679-0.872,3.873-1.606
				c1.198-0.734,2.196-1.681,2.992-2.836c0.801-1.155,1.198-2.552,1.198-4.19c0-1.259-0.283-2.352-0.851-3.276
				c-0.567-0.923-1.3-1.702-2.206-2.33c-0.901-0.631-1.9-1.145-2.992-1.545c-1.092-0.397-2.163-0.724-3.213-0.976l-10.02-2.457
				c-1.3-0.336-2.573-0.756-3.81-1.259c-1.24-0.506-2.324-1.177-3.247-2.017c-0.922-0.84-1.667-1.869-2.234-3.088
				c-0.567-1.217-0.852-2.709-0.852-4.472c0-1.092,0.208-2.375,0.631-3.844c0.42-1.471,1.207-2.857,2.362-4.161
				c1.155-1.3,2.739-2.402,4.758-3.306c2.015-0.902,4.597-1.354,7.751-1.354c2.222,0,4.347,0.294,6.361,0.88
				c2.016,0.588,3.78,1.473,5.292,2.648c1.515,1.174,2.722,2.635,3.623,4.379c0.906,1.744,1.354,3.771,1.354,6.081h-4.283
				c-0.085-1.723-0.475-3.224-1.164-4.506c-0.694-1.281-1.601-2.352-2.709-3.213c-1.113-0.859-2.396-1.511-3.844-1.954
				c-1.452-0.442-2.977-0.663-4.572-0.663c-1.469,0-2.887,0.159-4.25,0.474c-1.367,0.313-2.564,0.817-3.594,1.511
				c-1.028,0.694-1.857,1.608-2.488,2.741c-0.631,1.135-0.944,2.542-0.944,4.223c0,1.05,0.178,1.964,0.538,2.741
				c0.355,0.777,0.846,1.439,1.477,1.983c0.631,0.548,1.354,0.988,2.176,1.325c0.817,0.336,1.689,0.609,2.616,0.819l10.964,2.709
				c1.596,0.419,3.094,0.936,4.504,1.543c1.405,0.609,2.646,1.365,3.716,2.269c1.071,0.904,1.913,2.006,2.523,3.308
				c0.604,1.302,0.91,2.876,0.91,4.724c0,0.506-0.051,1.177-0.157,2.017c-0.105,0.84-0.355,1.733-0.753,2.677
				c-0.402,0.946-0.97,1.903-1.702,2.868c-0.736,0.967-1.744,1.837-3.026,2.614c-1.282,0.779-2.866,1.408-4.758,1.89
				c-1.888,0.483-4.157,0.726-6.803,0.726s-5.104-0.305-7.374-0.915c-2.269-0.607-4.198-1.542-5.795-2.804
				c-1.6-1.259-2.827-2.876-3.687-4.851c-0.863-1.975-1.228-4.347-1.104-7.12h4.288C281.039,94.06,281.395,95.993,282.152,97.546z"
				/>
			<path fill="#2E80C3" d="M349.571,61.568v3.655H333.88v41.333h-4.284V65.223h-15.624v-3.655H349.571z"/>
			<path fill="#2E80C3" d="M352.721,75.179c0.88-2.815,2.205-5.302,3.971-7.467c1.761-2.163,3.979-3.884,6.646-5.166
				c2.667-1.283,5.766-1.922,9.295-1.922c3.526,0,6.612,0.639,9.262,1.922c2.646,1.282,4.852,3.003,6.617,5.166
				c1.761,2.166,3.085,4.652,3.966,7.467c0.885,2.812,1.325,5.776,1.325,8.883c0,3.109-0.44,6.07-1.325,8.885
				c-0.881,2.815-2.205,5.292-3.966,7.436c-1.766,2.142-3.971,3.854-6.617,5.134c-2.649,1.281-5.735,1.922-9.262,1.922
				c-3.529,0-6.628-0.641-9.295-1.922c-2.667-1.28-4.885-2.993-6.646-5.134c-1.766-2.144-3.091-4.621-3.971-7.436
				c-0.881-2.815-1.325-5.776-1.325-8.885C351.396,80.955,351.84,77.992,352.721,75.179z M356.657,91.277
				c0.651,2.373,1.659,4.496,3.026,6.364c1.363,1.869,3.12,3.37,5.262,4.504c2.142,1.135,4.703,1.702,7.687,1.702
				c2.98,0,5.533-0.567,7.653-1.702c2.121-1.134,3.865-2.635,5.232-4.504c1.363-1.869,2.37-3.992,3.022-6.364
				c0.651-2.373,0.978-4.779,0.978-7.215c0-2.479-0.326-4.894-0.978-7.245c-0.652-2.354-1.659-4.464-3.022-6.333
				c-1.367-1.869-3.111-3.372-5.232-4.506c-2.12-1.134-4.673-1.702-7.653-1.702c-2.983,0-5.545,0.567-7.687,1.702
				c-2.142,1.135-3.898,2.637-5.262,4.506c-1.367,1.869-2.375,3.979-3.026,6.333c-0.652,2.351-0.974,4.766-0.974,7.245
				C355.684,86.498,356.005,88.904,356.657,91.277z"/>
			<path fill="#2E80C3" d="M431.509,70.546c-0.859-1.363-1.909-2.508-3.149-3.433c-1.24-0.923-2.604-1.628-4.093-2.11
				c-1.495-0.482-3.057-0.726-4.695-0.726c-2.983,0-5.545,0.567-7.687,1.702c-2.142,1.135-3.898,2.637-5.262,4.506
				c-1.367,1.869-2.375,3.979-3.026,6.333c-0.652,2.351-0.974,4.766-0.974,7.245c0,2.436,0.321,4.842,0.974,7.215
				c0.651,2.373,1.659,4.496,3.026,6.364c1.363,1.869,3.12,3.37,5.262,4.504c2.142,1.135,4.703,1.702,7.687,1.702
				c2.1,0,3.988-0.379,5.668-1.134c1.681-0.755,3.129-1.784,4.348-3.088c1.219-1.302,2.205-2.824,2.963-4.567
				c0.758-1.742,1.236-3.624,1.448-5.638h4.283c-0.292,2.771-0.943,5.27-1.951,7.497s-2.312,4.116-3.907,5.67
				c-1.596,1.556-3.475,2.753-5.639,3.592c-2.162,0.84-4.566,1.261-7.213,1.261c-3.53,0-6.629-0.641-9.295-1.922
				c-2.667-1.28-4.885-2.993-6.646-5.134c-1.765-2.144-3.09-4.621-3.97-7.436c-0.881-2.815-1.325-5.776-1.325-8.885
				c0-3.107,0.444-6.07,1.325-8.883c0.88-2.815,2.205-5.302,3.97-7.467c1.762-2.163,3.979-3.884,6.646-5.166
				c2.666-1.283,5.765-1.922,9.295-1.922c2.143,0,4.229,0.313,6.27,0.944c2.036,0.631,3.882,1.566,5.545,2.804
				c1.655,1.238,3.044,2.762,4.157,4.57c1.113,1.805,1.815,3.886,2.112,6.237h-4.288C432.99,73.456,432.372,71.913,431.509,70.546z"
				/>
			<path fill="#2E80C3" d="M449.122,61.568v24.196l26.147-24.196h5.795l-20.099,18.587l21.047,26.401h-5.546l-18.714-23.438
				l-8.631,8v15.438h-4.288V61.568H449.122z"/>
		</g>
	</g>
	<g>
		<path fill="#2E80C3" d="M489.806,54.916v0.792h-2.24v5.86h-0.91v-5.86h-2.243v-0.792H489.806z"/>
		<path fill="#2E80C3" d="M490.613,54.916h1.291l1.914,5.623l1.9-5.623h1.278v6.652h-0.859v-3.926c0-0.135,0.004-0.359,0.009-0.675
			c0.008-0.315,0.008-0.65,0.008-1.01l-1.896,5.611h-0.893l-1.918-5.611v0.203c0,0.163,0.005,0.411,0.013,0.745
			c0.009,0.334,0.013,0.58,0.013,0.736v3.926h-0.859V54.916z"/>
	</g>
</g>
</svg>
