<?xml version="1.0" encoding="utf-8"?>
<!-- Generator: Adobe Illustrator 16.2.1, SVG Export Plug-In . SVG Version: 6.00 Build 0)  -->
<!DOCTYPE svg PUBLIC "-//W3C//DTD SVG 1.1//EN" "http://www.w3.org/Graphics/SVG/1.1/DTD/svg11.dtd">
<svg version="1.1" id="Layer_1" xmlns="http://www.w3.org/2000/svg" xmlns:xlink="http://www.w3.org/1999/xlink" x="0px" y="0px"
	 width="1009px" height="288px" viewBox="0 0 1009 288" enable-background="new 0 0 1009 288" xml:space="preserve">
<g>
	<path d="M301.691,60.378c-0.325-10.396-0.808-20.829-1.451-31.308c2.739,0.325,5.719,0.604,8.945,0.846
		c3.222,0.242,6.849,0.363,10.879,0.363c4.026,0,7.653-0.121,10.879-0.363c3.222-0.242,6.203-0.521,8.945-0.846
		c-0.646,10.479-1.129,20.913-1.451,31.308c-0.325,10.396-0.483,22.283-0.483,35.66v32.879c0,13.38,0.159,25.264,0.483,35.66
		c0.321,10.396,0.805,20.591,1.451,30.582c-2.743-0.325-5.723-0.483-8.945-0.483c-3.226,0-6.853,0-10.879,0
		c-4.031,0-7.657,0-10.879,0c-3.226,0-6.207,0.158-8.945,0.483c0.643-9.991,1.126-20.187,1.451-30.582
		c0.321-10.396,0.483-22.28,0.483-35.66V96.038C302.175,82.662,302.013,70.774,301.691,60.378z"/>
	<path d="M387.998,97.005c4.51-6.769,9.792-12.005,15.835-15.714c6.044-3.706,12.934-5.561,20.67-5.561
		c12.088,0,21.396,3.506,27.923,10.517c6.528,7.011,9.792,18.336,9.792,33.967c0,8.22-0.163,15.473-0.483,21.759
		c-0.325,6.285-0.484,12.571-0.484,18.856c0,5.16,0.121,10.759,0.363,16.803s0.521,11.888,0.846,17.527
		c-2.097-0.325-4.756-0.483-7.978-0.483c-3.226,0-6.611,0-10.154,0c-3.547,0-6.932,0-10.154,0c-3.226,0-5.886,0.158-7.978,0.483
		c1.125-8.378,1.851-18.253,2.176-29.615c0.321-11.363,0.483-24.376,0.483-39.044c0-10.154-1.734-17.607-5.198-22.363
		c-3.468-4.752-8.341-7.132-14.626-7.132c-7.253,0-12.572,3.143-15.956,9.429c-3.385,6.286-5.077,14.989-5.077,26.11v9.67
		c0,9.833,0.121,19.099,0.363,27.803c0.242,8.703,0.763,17.085,1.571,25.143c-2.097-0.325-4.714-0.483-7.857-0.483
		c-3.143,0-6.569,0-10.275,0c-3.709,0-7.094,0-10.154,0c-3.064,0-5.723,0.158-7.978,0.483c0.804-8.058,1.33-16.439,1.571-25.143
		c0.242-8.704,0.363-17.97,0.363-27.803v-9.67c0-9.829-0.121-19.057-0.363-27.681c-0.242-8.621-0.767-17.286-1.571-25.989
		c2.901,0.325,5.76,0.604,8.582,0.846c2.818,0.242,5.682,0.363,8.583,0.363c2.901,0,5.761-0.121,8.583-0.363
		c2.818-0.242,5.84-0.521,9.066-0.846l-0.967,18.132H387.998z"/>
	<path d="M529.186,40.917c-7.416,0-13.461,2.176-18.132,6.527c-4.676,4.352-7.012,9.429-7.012,15.231
		c0,5.964,1.814,10.841,5.439,14.626c3.626,3.789,8.179,7.215,13.66,10.274c5.477,3.063,11.363,6.006,17.648,8.824
		c6.285,2.822,12.168,6.286,17.648,10.396c5.477,4.11,10.033,9.107,13.66,14.989c3.625,5.885,5.439,13.418,5.439,22.604
		c0,8.062-1.533,15.435-4.594,22.121c-3.064,6.69-7.416,12.413-13.055,17.165c-5.645,4.756-12.371,8.382-20.188,10.879
		c-7.818,2.497-16.561,3.747-26.23,3.747c-8.703,0-16.482-0.929-23.33-2.78c-6.852-1.851-12.05-4.147-15.593-6.89
		c1.609-5.64,2.98-10.796,4.11-15.473c1.125-4.673,2.093-9.75,2.901-15.23h4.594c0.641,3.547,1.85,6.89,3.625,10.032
		c1.771,3.144,4.027,5.924,6.77,8.341c2.738,2.418,6.045,4.314,9.912,5.682c3.869,1.371,8.22,2.055,13.054,2.055
		c9.672,0,16.803-2.417,21.396-7.253c4.594-4.835,6.891-10.637,6.891-17.406c0-6.123-1.775-11.121-5.318-14.989
		c-3.549-3.868-7.979-7.291-13.297-10.274c-5.32-2.98-11.121-5.882-17.408-8.704c-6.285-2.818-12.088-6.244-17.406-10.275
		c-5.318-4.026-9.754-8.983-13.297-14.868c-3.546-5.881-5.318-13.417-5.318-22.604c0-8.378,1.488-15.793,4.473-22.242
		c2.98-6.444,6.969-11.846,11.967-16.198c4.994-4.352,10.758-7.653,17.285-9.912c6.529-2.255,13.417-3.385,20.671-3.385
		c8.703,0,16.318,1.05,22.846,3.143c6.527,2.097,12.125,4.998,16.803,8.704c-1.451,3.709-2.701,7.294-3.748,10.758
		c-1.049,3.468-2.379,7.857-3.988,13.176h-3.627C553.277,47.849,543.527,40.917,529.186,40.917z"/>
	<path d="M647.648,86.609c0,2.097,0.24,4.11,0.725,6.044l-21.275-0.483c-0.324,3.709-0.604,7.978-0.846,12.813
		c-0.242,4.835-0.404,9.753-0.484,14.748c-0.082,4.998-0.162,9.833-0.24,14.505c-0.084,4.677-0.121,8.625-0.121,11.846
		c0,8.383,0.199,15.151,0.604,20.308c0.4,5.16,1.088,9.107,2.055,11.847c0.969,2.742,2.336,4.593,4.111,5.561
		c1.771,0.967,4.025,1.45,6.77,1.45c3.059,0,5.318-0.2,6.768-0.604c1.451-0.4,2.902-1.005,4.352-1.813v9.913
		c-3.225,1.45-7.252,2.738-12.088,3.867c-4.834,1.126-9.59,1.692-14.264,1.692c-20.469,0-30.703-12.246-30.703-36.747
		c0-4.673,0.08-9.95,0.242-15.835c0.158-5.882,0.363-11.926,0.604-18.132c0.242-6.203,0.443-12.33,0.605-18.374
		c0.158-6.044,0.242-11.642,0.242-16.802l-16.924,0.242c0.484-1.934,0.725-3.947,0.725-6.044c0-1.934-0.24-4.11-0.725-6.527
		l16.924,0.725c0-4.994-0.084-9.67-0.242-14.022c-0.162-4.352-0.404-9.587-0.725-15.714c5.639-2.255,11.199-4.631,16.68-7.132
		c5.479-2.497,10.959-5.115,16.439-7.857l2.418,1.692c-0.324,2.58-0.604,5.602-0.846,9.066c-0.242,3.468-0.482,7.094-0.725,10.879
		c-0.242,3.789-0.404,7.657-0.484,11.604c-0.082,3.951-0.121,7.698-0.121,11.242l21.275-0.483
		C647.889,82.5,647.648,84.675,647.648,86.609z"/>
	<path d="M655.744,111.994c3.301-8.058,7.695-14.785,13.176-20.187c5.477-5.398,11.805-9.429,18.979-12.088
		c7.17-2.66,14.543-3.989,22.121-3.989c18.857,0,33.441,5.319,43.758,15.956c10.312,10.638,15.473,25.064,15.473,43.275
		c0,9.833-1.451,18.699-4.352,26.593c-2.9,7.898-6.973,14.627-12.209,20.187c-5.238,5.561-11.482,9.712-18.736,12.451
		c-7.252,2.738-15.23,4.109-23.934,4.109c-7.254,0-14.385-0.967-21.396-2.9c-7.01-1.935-13.338-5.198-18.979-9.792
		c-5.643-4.593-10.195-10.596-13.658-18.011c-3.469-7.411-5.197-16.519-5.197-27.319
		C650.789,129.484,652.439,120.055,655.744,111.994z M728.15,98.334c-3.547-7.815-9.428-11.725-17.648-11.725
		c-7.414,0-13.258,4.352-17.527,13.055c-4.271,8.703-6.406,22.325-6.406,40.857c0,6.77,0.4,13.056,1.209,18.857
		c0.805,5.802,2.135,10.842,3.988,15.11c1.852,4.271,4.27,7.615,7.254,10.032c2.98,2.418,6.727,3.627,11.242,3.627
		c15.473,0,23.209-18.937,23.209-56.813C733.471,117.154,731.695,106.154,728.15,98.334z"/>
	<path d="M860.756,94.708c-3.789-4.431-9.391-6.648-16.803-6.648c-9.67,0-16.922,4.393-21.758,13.176
		c-4.834,8.786-7.252,20.995-7.252,36.626c0,14.668,3.059,25.91,9.186,33.726c6.125,7.819,15.068,11.726,26.836,11.726
		c4.994,0,9.83-1.168,14.506-3.506c4.672-2.335,8.137-4.956,10.396-7.857l2.9,2.418c-1.129,2.259-2.096,4.593-2.9,7.011
		c-0.809,2.418-1.613,4.835-2.418,7.253c-3.547,2.742-8.02,5.039-13.418,6.89c-5.402,1.852-11.809,2.78-19.221,2.78
		c-11.766,0-21.678-1.692-29.736-5.076c-8.061-3.385-14.547-7.979-19.461-13.78c-4.918-5.803-8.424-12.368-10.518-19.704
		c-2.096-7.332-3.143-14.705-3.143-22.121c0-8.862,1.488-17.082,4.473-24.66c2.98-7.574,7.254-14.101,12.814-19.583
		c5.561-5.477,12.287-9.791,20.186-12.934c7.896-3.143,16.682-4.714,26.352-4.714c9.188,0,16.961,1.05,23.33,3.143
		c6.365,2.097,12.451,4.835,18.254,8.22c-1.934,3.226-3.748,7.173-5.439,11.846c-1.693,4.677-2.943,9.107-3.748,13.297h-5.803
		C867.08,104.983,864.541,99.143,860.756,94.708z"/>
	<path d="M888.68,53.005c-0.326-13.214-0.809-26.594-1.451-40.132c2.094,0.325,4.752,0.604,7.979,0.846
		c3.223,0.242,6.607,0.363,10.154,0.363c3.543,0,6.928-0.121,10.152-0.363c3.223-0.242,5.883-0.521,7.979-0.846
		c-0.324,6.77-0.604,13.622-0.846,20.55c-0.242,6.932-0.445,14.747-0.604,23.451c-0.164,8.703-0.283,18.657-0.363,29.857
		c-0.084,11.204-0.121,24.539-0.121,40.011c0,2.259,0.037,3.709,0.121,4.352c0.08,0.646,0.441,0.967,1.088,0.967
		c0.643,0,2.213-1.247,4.715-3.747c2.496-2.497,5.719-6.082,9.67-10.758c3.947-4.673,8.541-10.275,13.779-16.802
		c5.236-6.528,11-13.818,17.287-21.879c1.934,0.325,3.826,0.604,5.682,0.846c1.85,0.242,3.746,0.363,5.68,0.363
		c1.771,0,3.707-0.121,5.803-0.363c2.094-0.242,4.674-0.521,7.736-0.846c-2.096,2.417-5.197,5.723-9.307,9.912
		c-4.111,4.193-8.342,8.503-12.693,12.934c-4.352,4.435-8.461,8.666-12.33,12.692c-3.867,4.031-6.689,7.011-8.461,8.945
		c0.643,0.967,2.055,3.226,4.23,6.769c2.176,3.547,4.793,7.778,7.857,12.692c3.061,4.918,6.285,10.154,9.67,15.715
		c3.385,5.56,6.566,10.879,9.551,15.956c2.98,5.076,5.598,9.512,7.855,13.296c2.256,3.789,3.707,6.248,4.352,7.374
		c-3.383-0.325-6.609-0.483-9.67-0.483c-3.062,0-6.205,0-9.428,0c-3.227,0-6.328,0-9.309,0c-2.984,0-6.006,0.158-9.066,0.483
		c-0.807-0.805-2.137-2.818-3.988-6.044c-1.855-3.222-3.951-6.89-6.285-11c-2.338-4.11-4.756-8.42-7.254-12.935
		c-2.5-4.51-4.877-8.661-7.131-12.45c-2.26-3.785-4.273-6.89-6.045-9.308c-1.775-2.418-2.984-3.626-3.625-3.626
		c-0.646,0-1.088,0.483-1.33,1.451c-0.242,0.967-0.363,3.951-0.363,8.945v13.538c0,2.097,0.037,4.677,0.121,7.736
		c0.08,3.063,0.158,6.165,0.242,9.308c0.078,3.144,0.242,6.086,0.482,8.824c0.242,2.742,0.521,4.594,0.848,5.561
		c-2.902-0.325-5.803-0.483-8.705-0.483c-2.9,0-5.801,0-8.703,0c-2.9,0-5.801,0-8.703,0c-2.9,0-5.801,0.158-8.703,0.483
		c0.643-13.055,1.125-26.189,1.451-39.406c0.32-13.214,0.482-27.72,0.482-43.517V96.521C889.162,80.728,889,66.222,888.68,53.005z"
		/>
</g>
<g>
	<path d="M330.714,262.507c-0.79,0.386-1.742,0.729-2.856,1.033c-1.114,0.304-2.36,0.577-3.736,0.82
		c-1.377,0.243-2.815,0.364-4.313,0.364c-3.2,0-6.158-0.455-8.871-1.367c-2.714-0.911-5.053-2.298-7.018-4.161
		c-1.965-1.863-3.504-4.142-4.617-6.835c-1.115-2.693-1.671-5.762-1.671-9.205c0-3.442,0.556-6.511,1.671-9.204
		c1.113-2.693,2.673-4.972,4.678-6.836c2.005-1.862,4.405-3.28,7.2-4.253c2.794-0.972,5.872-1.458,9.235-1.458
		c2.673,0,5.113,0.273,7.321,0.82c2.207,0.547,4.162,1.206,5.863,1.975c-0.325,0.567-0.588,1.337-0.79,2.309
		c-0.203,0.973-0.364,1.783-0.486,2.431l-0.365,0.121c-0.405-0.485-0.972-1.032-1.701-1.64c-0.729-0.608-1.58-1.194-2.552-1.763
		c-0.972-0.566-2.065-1.042-3.281-1.428c-1.215-0.384-2.552-0.577-4.01-0.577c-2.391,0-4.608,0.386-6.653,1.154
		c-2.046,0.771-3.828,1.955-5.347,3.555c-1.519,1.601-2.704,3.625-3.554,6.075c-0.851,2.451-1.276,5.357-1.276,8.719
		c0,3.362,0.425,6.269,1.276,8.719c0.851,2.451,2.035,4.476,3.554,6.075c1.519,1.601,3.301,2.785,5.347,3.555
		c2.045,0.77,4.262,1.154,6.653,1.154c1.458,0,2.804-0.183,4.04-0.547c1.235-0.364,2.37-0.8,3.402-1.307
		c1.033-0.506,1.964-1.053,2.795-1.64c0.83-0.587,1.528-1.104,2.096-1.55l0.243,0.243l-0.547,3.585
		C332.081,261.769,331.503,262.123,330.714,262.507z"/>
	<path d="M384.786,233.952c1.113-2.693,2.673-4.972,4.678-6.836c2.005-1.862,4.405-3.28,7.2-4.253
		c2.794-0.972,5.853-1.458,9.174-1.458c3.362,0,6.44,0.486,9.235,1.458c2.794,0.973,5.194,2.391,7.199,4.253
		c2.005,1.864,3.564,4.143,4.678,6.836c1.114,2.693,1.671,5.762,1.671,9.204c0,3.443-0.557,6.512-1.671,9.205
		c-1.114,2.693-2.673,4.972-4.678,6.835c-2.005,1.863-4.405,3.25-7.199,4.161c-2.795,0.912-5.874,1.367-9.235,1.367
		c-3.321,0-6.379-0.455-9.174-1.367c-2.795-0.911-5.195-2.298-7.2-4.161s-3.565-4.142-4.678-6.835
		c-1.115-2.693-1.671-5.762-1.671-9.205C383.115,239.714,383.671,236.646,384.786,233.952z M421.392,234.438
		c-0.851-2.45-2.035-4.475-3.554-6.075c-1.519-1.6-3.302-2.784-5.347-3.555c-2.045-0.769-4.263-1.154-6.653-1.154
		c-2.349,0-4.547,0.386-6.592,1.154c-2.046,0.771-3.828,1.955-5.347,3.555c-1.519,1.601-2.704,3.625-3.554,6.075
		c-0.851,2.451-1.276,5.357-1.276,8.719c0,3.362,0.425,6.269,1.276,8.719c0.851,2.451,2.035,4.476,3.554,6.075
		c1.519,1.601,3.301,2.785,5.347,3.555c2.045,0.77,4.243,1.154,6.592,1.154c2.39,0,4.607-0.385,6.653-1.154
		c2.045-0.77,3.828-1.954,5.347-3.555c1.519-1.6,2.704-3.624,3.554-6.075c0.851-2.45,1.276-5.356,1.276-8.719
		C422.667,239.795,422.242,236.889,421.392,234.438z"/>
	<path d="M494.452,238.175c2.855,5.428,5.842,10.996,8.961,16.707c0.404-0.769,0.992-1.872,1.762-3.311
		c0.77-1.438,1.66-3.088,2.674-4.952c1.012-1.862,2.096-3.878,3.25-6.045c1.154-2.166,2.328-4.364,3.523-6.592
		s2.379-4.415,3.555-6.562c1.174-2.146,2.268-4.151,3.281-6.016h0.789c0.445,3.889,0.859,7.646,1.246,11.271
		c0.385,3.626,0.779,7.19,1.184,10.693c0.404,3.504,0.811,6.967,1.217,10.39c0.404,3.423,0.85,6.814,1.336,10.176
		c-0.486-0.081-0.963-0.121-1.428-0.121c-0.467,0-0.941,0-1.428,0s-0.963,0-1.428,0c-0.467,0-0.941,0.04-1.428,0.121
		c-0.447-5.386-0.893-10.611-1.338-15.675c-0.445-5.062-0.992-10.227-1.639-15.493h-0.123c-2.795,5.104-5.539,10.177-8.232,15.22
		s-5.254,10.319-7.686,15.827h-0.547c-2.43-5.104-4.973-10.217-7.625-15.341s-5.316-10.359-7.988-15.706h-0.121
		c-0.285,2.513-0.6,5.236-0.943,8.172c-0.344,2.938-0.658,5.833-0.941,8.688s-0.527,5.55-0.729,8.08
		c-0.203,2.532-0.305,4.608-0.305,6.228c-0.648-0.081-1.357-0.121-2.125-0.121c-0.771,0-1.479,0.04-2.127,0.121
		c0.526-3.28,1.072-6.743,1.641-10.389c0.566-3.646,1.113-7.311,1.641-10.997c0.525-3.686,1.012-7.321,1.457-10.906
		c0.445-3.584,0.83-6.996,1.154-10.237h1.033C488.77,227.157,491.596,232.747,494.452,238.175z"/>
	<path d="M580.906,230.063c-0.102-2.572-0.213-5.194-0.334-7.868c0.973,0.082,1.953,0.152,2.947,0.213
		c0.992,0.061,1.975,0.091,2.945,0.091c0.486,0,1.074-0.02,1.762-0.061c0.689-0.04,1.389-0.07,2.098-0.091
		c0.707-0.021,1.387-0.051,2.035-0.092c0.646-0.04,1.193-0.061,1.641-0.061c0.607,0,1.355,0.021,2.248,0.061
		c0.889,0.041,1.832,0.163,2.824,0.365c0.992,0.203,1.975,0.507,2.947,0.911c0.971,0.405,1.854,0.993,2.643,1.762
		c0.789,0.77,1.428,1.731,1.914,2.886s0.729,2.582,0.729,4.283c0,2.674-0.576,4.841-1.73,6.501
		c-1.156,1.661-2.574,2.957-4.254,3.889c-1.682,0.933-3.463,1.56-5.346,1.884c-1.885,0.324-3.555,0.485-5.014,0.485
		c-0.932,0-1.783-0.009-2.551-0.03c-0.77-0.02-1.561-0.07-2.369-0.151v3.342c0,2.673,0.049,5.307,0.15,7.897
		c0.102,2.593,0.213,5.145,0.334,7.655c-0.932-0.081-1.924-0.121-2.977-0.121s-2.045,0.04-2.977,0.121
		c0.121-2.511,0.232-5.062,0.334-7.655c0.102-2.591,0.152-5.225,0.152-7.897v-10.45
		C581.059,235.258,581.008,232.636,580.906,230.063z M590.354,242.974c1.256,0,2.553-0.141,3.889-0.425
		c1.336-0.283,2.561-0.8,3.676-1.55c1.113-0.749,2.025-1.781,2.734-3.098c0.707-1.316,1.062-3.008,1.062-5.073
		c0-1.741-0.242-3.16-0.729-4.253c-0.486-1.094-1.164-1.944-2.035-2.552c-0.871-0.608-1.936-1.022-3.189-1.246
		c-1.256-0.222-2.674-0.334-4.254-0.334h-5.467v18.045C587.416,242.812,588.855,242.974,590.354,242.974z"/>
	<path d="M689.994,263.935c-0.568-0.081-1.104-0.121-1.609-0.121c-0.508,0-1.045,0-1.611,0s-1.104,0-1.609,0
		c-0.508,0-1.043,0.04-1.609,0.121c-0.285-0.931-0.67-2.055-1.154-3.371c-0.486-1.316-1.023-2.693-1.611-4.132
		c-0.588-1.438-1.184-2.896-1.791-4.374c-0.609-1.479-1.176-2.887-1.701-4.223c-1.297-0.04-2.613-0.07-3.949-0.092
		c-1.338-0.02-2.674-0.03-4.012-0.03c-1.256,0-2.49,0.011-3.705,0.03c-1.215,0.021-2.451,0.052-3.707,0.092
		c-1.297,3.159-2.471,6.166-3.523,9.021c-1.053,2.856-1.844,5.216-2.369,7.078c-0.689-0.081-1.438-0.121-2.248-0.121
		s-1.561,0.04-2.248,0.121c3.281-7.087,6.48-14.135,9.6-21.143c3.119-7.007,6.258-14.136,9.418-21.387h1.154
		c0.971,2.35,2.023,4.892,3.158,7.625c1.135,2.734,2.289,5.499,3.463,8.293c1.176,2.795,2.35,5.57,3.525,8.324
		c1.174,2.755,2.277,5.316,3.311,7.686s1.965,4.486,2.795,6.349C688.789,261.546,689.467,262.963,689.994,263.935z M663.078,245.04
		c1.053,0,2.146,0.021,3.281,0.061c1.135,0.041,2.229,0.061,3.281,0.061c1.133,0,2.268-0.01,3.402-0.03
		c1.133-0.02,2.268-0.05,3.402-0.091l-6.744-15.433L663.078,245.04z"/>
	<path d="M761.262,248.169c-5.266-5.65-10.531-11.271-15.797-16.86c-0.041,1.135-0.082,2.653-0.121,4.557
		c-0.041,1.904-0.061,4.496-0.061,7.777c0,0.851,0.01,1.904,0.029,3.159c0.02,1.256,0.041,2.572,0.061,3.949
		c0.021,1.377,0.051,2.774,0.092,4.192c0.039,1.418,0.08,2.733,0.121,3.949c0.041,1.215,0.082,2.278,0.121,3.189
		c0.041,0.911,0.082,1.529,0.123,1.853c-0.648-0.081-1.357-0.121-2.127-0.121c-0.811,0-1.561,0.04-2.248,0.121
		c0.08-0.404,0.172-1.154,0.273-2.248c0.1-1.093,0.191-2.399,0.273-3.918c0.08-1.52,0.172-3.169,0.273-4.952
		c0.1-1.781,0.182-3.563,0.242-5.347c0.061-1.781,0.111-3.523,0.152-5.225c0.039-1.701,0.061-3.22,0.061-4.557
		c0-3.889-0.01-7.23-0.029-10.025c-0.021-2.794-0.072-4.88-0.152-6.258h0.973c2.469,2.674,5.111,5.54,7.928,8.598
		c2.814,3.059,5.609,6.075,8.385,9.053c2.773,2.977,5.406,5.792,7.898,8.444c2.49,2.653,4.668,4.912,6.531,6.774v-8.263
		c0-4.253-0.031-8.394-0.092-12.425c-0.061-4.029-0.193-7.827-0.395-11.392c0.811,0.203,1.498,0.304,2.066,0.304
		c0.484,0,1.133-0.101,1.943-0.304c-0.082,0.892-0.172,2.229-0.273,4.01c-0.102,1.783-0.203,3.687-0.303,5.711
		c-0.104,2.026-0.193,4.011-0.273,5.954c-0.082,1.944-0.123,3.504-0.123,4.679c0,1.013,0,2.228,0,3.646
		c0,1.377,0.01,2.815,0.031,4.313c0.02,1.499,0.039,3.008,0.061,4.526c0.02,1.519,0.039,2.938,0.061,4.253
		c0.02,1.316,0.031,2.461,0.031,3.433c0,0.892,0,1.559,0,2.005h-0.852C771.488,259.339,766.525,253.819,761.262,248.169z"/>
	<path d="M834.018,230.063c-0.102-2.572-0.213-5.194-0.334-7.868c0.525,0.082,1.033,0.152,1.52,0.213
		c0.484,0.061,0.971,0.091,1.457,0.091s0.973-0.03,1.459-0.091s0.992-0.131,1.518-0.213c-0.121,2.674-0.232,5.296-0.334,7.868
		s-0.15,5.194-0.15,7.868v10.45c0,2.673,0.049,5.307,0.15,7.897c0.102,2.593,0.213,5.145,0.334,7.655
		c-0.932-0.081-1.924-0.121-2.977-0.121s-2.045,0.04-2.977,0.121c0.121-2.511,0.232-5.062,0.334-7.655
		c0.102-2.591,0.152-5.225,0.152-7.897v-10.45C834.17,235.258,834.119,232.636,834.018,230.063z"/>
	<path d="M895.867,229.973c-0.102-2.592-0.211-5.185-0.334-7.777c1.824,0.082,3.635,0.152,5.438,0.213s3.615,0.091,5.439,0.091
		c1.822,0,3.623-0.03,5.406-0.091c1.781-0.061,3.584-0.131,5.408-0.213c-0.123,0.607-0.184,1.215-0.184,1.823
		c0,0.607,0.061,1.215,0.184,1.822c-1.297-0.081-2.482-0.161-3.555-0.243c-1.074-0.081-2.209-0.161-3.402-0.243
		c-1.195-0.08-2.502-0.151-3.92-0.213c-1.418-0.061-3.119-0.091-5.104-0.091c-0.039,1.297-0.09,2.532-0.15,3.706
		c-0.061,1.176-0.092,2.512-0.092,4.01c0,1.58,0.01,3.12,0.031,4.618c0.02,1.499,0.029,2.633,0.029,3.402
		c1.781,0,3.381-0.021,4.801-0.061c1.416-0.04,2.713-0.092,3.887-0.152c1.176-0.061,2.258-0.121,3.252-0.183
		c0.992-0.061,1.934-0.131,2.824-0.212c-0.121,0.607-0.182,1.235-0.182,1.883c0,0.607,0.061,1.216,0.182,1.823
		c-1.053-0.122-2.277-0.223-3.676-0.304c-1.396-0.081-2.795-0.132-4.191-0.152c-1.398-0.02-2.715-0.04-3.949-0.061
		c-1.236-0.021-2.219-0.03-2.947-0.03c0,0.364-0.01,0.759-0.029,1.185c-0.021,0.425-0.031,0.963-0.031,1.61v2.369v3.646
		c0,2.309,0.01,4.213,0.031,5.711c0.02,1.499,0.049,2.634,0.09,3.402c1.338,0,2.754,0,4.254,0c1.539,0,3.047-0.03,4.525-0.091
		c1.479-0.062,2.877-0.142,4.193-0.243c1.314-0.101,2.461-0.253,3.432-0.456c-0.082,0.284-0.131,0.599-0.152,0.942
		c-0.02,0.344-0.029,0.658-0.029,0.941c0,0.648,0.061,1.175,0.182,1.579c-1.822-0.081-3.635-0.121-5.438-0.121s-3.635,0-5.498,0
		s-3.707,0-5.529,0s-3.666,0.04-5.529,0.121c0.123-2.591,0.232-5.174,0.334-7.746c0.102-2.571,0.152-5.194,0.152-7.868v-10.45
		C896.02,235.197,895.969,232.564,895.867,229.973z"/>
	<path d="M971.326,258.254c0.547,0.75,1.215,1.428,2.006,2.036c0.789,0.607,1.711,1.104,2.764,1.488s2.227,0.577,3.523,0.577
		c1.338,0,2.541-0.232,3.615-0.699c1.072-0.465,1.984-1.093,2.734-1.883s1.326-1.722,1.732-2.795
		c0.404-1.073,0.607-2.218,0.607-3.433c0-1.863-0.477-3.342-1.428-4.436c-0.953-1.094-2.137-2.005-3.555-2.734
		c-1.418-0.729-2.947-1.396-4.588-2.005c-1.641-0.607-3.17-1.366-4.586-2.278c-1.418-0.911-2.604-2.075-3.555-3.493
		c-0.953-1.417-1.428-3.32-1.428-5.711c0-1.701,0.303-3.251,0.912-4.648c0.607-1.396,1.488-2.602,2.643-3.614
		s2.541-1.802,4.162-2.37c1.619-0.566,3.441-0.851,5.467-0.851c1.945,0,3.625,0.233,5.043,0.699s2.734,1.185,3.949,2.156
		c-0.365,0.689-0.668,1.419-0.912,2.188c-0.242,0.77-0.484,1.742-0.729,2.916h-0.729c-0.203-0.566-0.477-1.185-0.82-1.853
		c-0.346-0.668-0.811-1.285-1.398-1.854c-0.586-0.566-1.285-1.042-2.096-1.428c-0.811-0.384-1.783-0.577-2.916-0.577
		c-1.135,0-2.178,0.183-3.129,0.547s-1.783,0.881-2.49,1.55c-0.709,0.668-1.256,1.468-1.641,2.399
		c-0.387,0.933-0.578,1.944-0.578,3.038c0,1.904,0.477,3.402,1.428,4.496s2.137,2.015,3.555,2.764
		c1.418,0.75,2.947,1.419,4.588,2.006s3.168,1.306,4.586,2.156s2.604,1.944,3.555,3.281c0.951,1.336,1.428,3.119,1.428,5.347
		c0,1.863-0.334,3.625-1.002,5.285c-0.668,1.661-1.641,3.109-2.916,4.345c-1.277,1.235-2.836,2.187-4.68,2.855
		c-1.844,0.668-3.939,1.002-6.287,1.002c-2.512,0-4.547-0.334-6.107-1.002c-1.559-0.669-2.865-1.428-3.918-2.278
		c0.365-0.932,0.617-1.771,0.76-2.521c0.141-0.749,0.273-1.711,0.395-2.886h0.729C970.344,256.766,970.779,257.505,971.326,258.254z
		"/>
</g>
<g>
	<path fill="#FFFFFF" d="M147.267,268.986l-0.149-0.211c-2.71-3.819-26.737-38.682-35.892-85.838
		c-5.071-26.122-4.705-51.379,1.088-75.07c7.132-29.167,22.572-56.125,45.89-80.126l0.147-0.151h28.408l-1.041,0.882
		c-8.652,7.325-37.915,34.542-51.229,77.199c-16.168,51.799-3.62,106.479,37.294,162.52l0.581,0.795H147.267z"/>
	<path fill="#FFFFFF" d="M185.395,28.09c-21.676,18.353-110.675,108-14.016,240.396h-23.854
		c-8.729-12.307-90.44-135.946,11.037-240.396H185.395 M188.123,27.09h-2.729h-26.833h-0.423l-0.294,0.303
		c-23.38,24.065-38.863,51.101-46.017,80.355c-5.811,23.762-6.179,49.091-1.093,75.284c9.175,47.259,33.259,82.203,35.975,86.031
		l0.299,0.422h0.517h23.854h1.968l-1.161-1.59C131.37,211.99,118.847,157.46,134.965,105.82
		c13.274-42.529,42.45-69.664,51.075-76.967L188.123,27.09L188.123,27.09z"/>
</g>
<path fill="#FFFFFF" d="M248.5,77.257c-129.681,5.122-110.763,103.272-110.763,103.272C240.613,202.211,248.5,77.257,248.5,77.257z"
	/>
<path fill="#FFFFFF" d="M98.785,121.016c0,0,32.702-59.337-38.252-93.987H39.731C37.204,44.61,32.15,111.326,98.785,121.016z"/>
<path fill="#FFFFFF" d="M37.621,198.664c0,0,33.501,57.941,79.622,28.773C117.243,227.438,105.417,178.164,37.621,198.664z"/>
<path fill="#005185" stroke="#FFFFFF" stroke-width="4" d="M158.562,29.023L158.562,29.023l-97.311-0.001
	c0.001,0,0.001,0.001,0.001,0.001c70.955,34.201,38.253,92.774,38.253,92.774c-66.635-9.565-61.582-75.42-59.054-92.774v-0.001
	H21.196v238.386h126.333c-0.002-0.002-0.004-0.004-0.004-0.006C138.796,255.096,57.085,133.474,158.562,29.023z M117.243,227.438
	c-46.121,29.168-79.622-28.773-79.622-28.773C105.417,178.164,117.243,227.438,117.243,227.438z"/>
<path fill="#A5B971" stroke="#FFFFFF" stroke-width="4" d="M185.396,29.022c0,0,0,0.001-0.002,0.001
	c-21.676,18.353-110.675,105.991-14.016,238.379c0.002,0.002,0.002,0.004,0.004,0.006h45.635c0.045,0,0.091-0.006,0.14-0.006
	c1.45-0.003,2.88-0.078,4.29-0.226c21.426-2.214,38.136-20.325,38.136-42.332V29.022H185.396z M137.737,180.529
	c0,0-18.918-98.15,110.763-103.272C248.5,77.257,240.613,202.211,137.737,180.529z"/>
</svg>
